<svg
   xmlns="http://www.w3.org/2000/svg"
   height="66"
   viewBox="0 0 66 66"
   width="66"
   id="svg-icon-draw-circle"
   version="1.1">
  <ellipse
     class="svg-icon-fill"
     cx="33"
     cy="33"
     id="circle4195"
     rx="25.896938"
     ry="25.89694" />
  <path
     class="svg-icon-outline"
     d="M 33,5 A 27.99919,27.99919 0 0 0 4.9999999,33 27.99919,27.99919 0 0 0 33,61 27.99919,27.99919 0 0 0 61,33 27.99919,27.99919 0 0 0 33,5 Z m 0,5.824682 A 22.177576,22.177576 0 0 1 55.17532,33 22.177576,22.177576 0 0 1 33,55.17532 22.177576,22.177576 0 0 1 10.824682,33 22.177576,22.177576 0 0 1 33,10.824682 Z"
     id="path4197"
  />
</svg>
